<?xml version="1.0" encoding="UTF-8" standalone="no"?>
<!-- Created with Inkscape (http://www.inkscape.org/) -->

<svg
   width="16mm"
   height="15.999993mm"
   viewBox="0 0 16 15.999993"
   version="1.1"
   id="svg1"
   xmlns="http://www.w3.org/2000/svg"
   xmlns:svg="http://www.w3.org/2000/svg">
  <defs
     id="defs1" />
  <g
     id="layer2"
     transform="translate(-7.0114567,-145.78541)">
    <rect
       style="display:inline;fill:none;fill-opacity:1;stroke:none;stroke-width:1.40786;stroke-opacity:1"
       id="rect3-3-4-1"
       width="16"
       height="16"
       x="7.011457"
       y="145.78542" />
    <path
       style="display:inline;fill:#186efb;fill-opacity:1"
       d="M 48.454545,180 H 68 c 2.765625,-0.14062 3.524773,-2.28259 3.696648,-3.69665 0.120352,-10.19158 0.157584,-20.38345 0.156905,-30.57569 l -6.583307,3.21672 c -3.406562,1.6645 -10.176364,4.30097 -15,5.95027 L 41.5,157.89337 32.75,159.14702 24,160.40066 v 14.69025 c 0,4.3125 2.284091,4.69034 4.909091,4.90909 z m 75.381885,0 c 4.55689,-0.31103 6.02506,-1.65134 6.21689,-5.09118 C 130.03769,164.04958 130,152.40894 130,141.54966 V 110 h -1.0427 c -0.57348,0 -3.50391,1.81821 -6.51206,4.04046 -3.00815,2.22225 -12.15607,8.40975 -20.32871,13.75 -8.172632,5.34025 -16.973064,10.9546 -19.556513,12.47635 l -4.697179,2.7668 0.318581,15.90556 L 78.5,174.84472 c -0.0625,2.96875 2.723628,4.87403 4.848628,5.15528 z m 39.67068,0 h 22.32932 c 4.49803,-0.0452 6.2378,-2.80376 6.16357,-6.90068 V 128.54966 84 h -1.26176 c -0.69396,0 -6.0744,3.7125 -11.95652,8.25 -5.88212,4.5375 -15.50391,11.85 -21.38174,16.25 -5.87784,4.4 -11.32088,8.373 -12.09566,8.82889 l -1.40868,0.82889 -3.3811,-2.57889 C 138.65494,114.1605 136.87842,113 136.56672,113 H 136 v 30.42327 30.42328 c 0.0884,3.0052 1.20031,5.91038 5.17779,6.15345 z m -138.403001,-25.09342 6.479108,-0.88181 7.761508,-1.98506 7.761508,-1.98506 9.04322,-4.01403 9.043219,-4.01404 13.382476,-7.99887 c 7.360361,-4.39938 18.22951,-11.46612 24.153662,-15.70386 5.92416,-4.23774 14.34115,-10.31936 18.70444,-13.51471 l 7.93325,-5.809736 1.69066,1.250296 c 0.92987,0.68767 4.18316,3.18724 7.22955,5.5546 l 5.53888,4.30431 37.3372,-27.973786 37.33721,-27.973785 4.74375,4.625732 4.74375,4.625731 0.93395,-0.956251 C 229.43513,61.930313 231.91294,53.867325 234.4277,44.5385 236.94247,35.209675 239,26.322175 239,24.7885 V 22 h -1.13417 c -0.62379,0 -10.18629,1.64767 -21.25,3.661488 L 196.5,29.322976 l -1,0.920953 -1,0.920952 4.70299,4.287409 4.70299,4.287408 -2.20299,2.017872 c -1.21164,1.109829 -6.25299,5.28217 -11.20299,9.271869 -4.95,3.989698 -14.36986,11.577724 -20.93303,16.862279 -6.56317,5.284555 -14.11858,11.302432 -16.78981,13.37306 l -4.85678,3.764778 -7.67186,-6.455419 -7.67185,-6.455419 -5.53834,4.646797 C 123.99225,79.321253 118.575,83.942634 115,87.035249 c -3.575,3.092616 -13.475,11.229554 -22,18.082081 -8.525,6.85253 -18.65,14.75169 -22.5,17.55367 -3.85,2.80199 -10.264702,7.19551 -14.254893,9.76338 -3.990191,2.56787 -10.535905,6.22699 -14.54603,8.13139 l -5.959057,2.82995 a 15.283946,15.283946 160.1081 0 1 -2.760532,0.99885 l -3.783218,0.97002 c -0.858692,0.22017 -2.268443,0.48721 -3.153016,0.53685 -0.919924,0.0516 -2.10584,0.0976 -3.23045,0.11799 -0.81289,0.0147 -2.122172,-0.10533 -2.924108,-0.24745 l -1.873236,-0.33197 a 3.8272404,3.8272404 26.097149 0 1 -1.900256,-0.9308 l -1.111829,-1.0062 -0.705516,-0.74323 a 8.148839,8.148839 57.867668 0 1 -1.709876,-2.72236 l -0.623805,-1.646 -0.627635,-1.90176 a 5.7588647,5.7588647 86.731795 0 1 -0.169905,-2.97542 l 0.803745,-3.87161 0.790805,-3.80929 a 13.199181,13.199181 108.66671 0 1 1.020724,-3.02138 l 2.789534,-5.82078 c 1.916061,-3.99815 3.274072,-7.47904 3.017803,-7.7353 -0.256269,-0.25627 -1.784681,1.04381 -3.396471,2.88907 -1.611789,1.84525 -4.123545,4.78068 -5.581679,6.52317 -1.4581349,1.74248 -3.563396,5.23043 -4.6783586,7.75099 l -0.9517861,2.15167 a 17.67407,17.67407 105.30823 0 0 -1.3880809,5.07111 l -0.2609464,2.20328 -0.3022555,2.55208 a 8.0090511,8.0090511 80.684266 0 0 0.7177569,4.37554 l 0.6880713,1.45 c 0.9224498,1.94392 2.7341632,4.52738 4.0260297,5.74103 1.2918665,1.21364 4.0790136,2.8519 6.1936596,3.64057 l 1.583977,0.59077 a 12.650867,12.650867 9.6552855 0 0 4.673315,0.79507 z M 25.489247,144 c 0.635752,0 5.295122,-2.0146 10.354155,-4.47688 5.059034,-2.46228 12.001373,-6.36637 15.42742,-8.67575 C 54.69687,128.53799 60.7625,123.99868 64.75,120.76001 L 72,114.87153 V 101.39031 87.909091 C 71.5625,84.752841 70.622159,83.5625 67.090909,83 H 28.846154 C 25.189904,83.0625 22.875,83.814904 23,88.846154 v 26.910256 26.91026 l 0.666667,0.66666 C 24.033333,143.7 24.853494,144 25.489247,144 Z M 81.838935,106.82463 C 83.403371,105.54608 87.599982,102.025 91.164736,99 94.72949,95.975 104.70073,87.446345 113.32305,80.047433 L 129,66.594866 V 53.432292 40.269717 C 129.0312,37.519717 128.41734,35.28125 124.85484,35 H 104.0382 83.221568 C 79.618833,35.101892 78.593309,36.921964 78.5,38.821308 L 78.211046,72.58795 c -0.158925,18.571653 -0.04766,34.39544 0.247253,35.16397 l 0.536206,1.39734 z M 151.96405,73.249749 C 153.90882,71.786146 161.125,66.105581 168,60.626271 c 6.875,-5.47931 14.1875,-11.553083 16.25,-13.497274 L 188,43.594104 V 27.87884 12.163575 C 187.7759,9.2923867 184.82403,6.0745591 181.09932,6 H 162 142.90068 C 139.13293,6.1054614 136.12919,8.6620137 136,12.163575 V 38.501908 64.84024 l 6.21405,5.535303 6.21405,5.535303 z"
       id="path3-4-7-0"
       transform="matrix(0.06430086,0,0,0.06430086,7.4816801,147.91265)" />
    <path
       style="display:inline;fill:#ea4335;fill-opacity:1;stroke:none;stroke-width:0.0202879;stroke-dasharray:none;stroke-opacity:1"
       d="m 31.778825,43.344797 -0.146691,-0.07265 0.0027,-0.369978 0.0027,-0.369979 0.03553,-0.02039 c 0.01954,-0.01121 0.05194,-0.02292 0.07198,-0.02602 0.02152,-0.0033 0.233512,-0.0056 0.517477,-0.0057 0.385684,-2.5e-5 0.487592,0.0015 0.514121,0.0078 0.04001,0.0095 0.08439,0.03493 0.09927,0.05684 0.007,0.01031 0.01094,0.09172 0.01094,0.226416 v 0.210319 l -0.06426,0.03395 c -0.03535,0.01867 -0.105908,0.05337 -0.156806,0.07711 -0.165765,0.0773 -0.729829,0.325904 -0.737697,0.325126 -0.0015,-1.1e-4 -0.06865,-0.03296 -0.149328,-0.07291 z"
       id="path7-8"
       transform="matrix(2.6471435,0,0,4.7595433,-67.49156,-53.878189)" />
    <path
       style="display:inline;fill:#ea4335;fill-opacity:1;stroke:#ea4335;stroke-width:0.00148391;stroke-dasharray:none;stroke-opacity:1"
       d="m 31.776742,43.347361 -0.150058,-0.07444 v -0.357903 c 0,-0.389431 -4.78e-4,-0.36276 0.0069,-0.375335 l 0.0031,-0.0053 1.06e-4,0.01037 c 5.2e-5,0.0057 -0.0011,0.157215 -0.0024,0.336696 -0.0014,0.179482 -0.0025,0.340968 -0.0025,0.358857 l 5.2e-5,0.03252 0.103467,0.05111 c 0.105744,0.05224 0.17996,0.08861 0.188313,0.09229 l 0.0047,0.0021 0.0069,-0.0026 c 0.05989,-0.02283 0.558157,-0.242719 0.718944,-0.317272 0.05922,-0.02746 0.128667,-0.06153 0.174099,-0.08542 0.01234,-0.0065 0.0307,-0.01614 0.04079,-0.02144 l 0.01836,-0.0097 10e-7,-0.137966 c 1e-6,-0.189603 -0.0025,-0.270124 -0.0091,-0.294163 -0.0028,-0.01046 -0.01927,-0.02502 -0.0436,-0.0387 -0.02753,-0.01547 -0.05199,-0.02384 -0.07584,-0.02595 -0.03057,-0.0027 -0.07841,-0.0038 -0.204733,-0.0047 -0.246274,-0.0017 -0.648508,-2.21e-4 -0.763742,0.0029 -0.04581,0.0013 -0.05085,0.0019 -0.07455,0.0096 -0.01769,0.0058 -0.02889,0.01088 -0.05238,0.02385 -0.01184,0.0065 -0.02153,0.01156 -0.02153,0.01116 0,-0.0018 0.01612,-0.01433 0.02525,-0.01965 0.01385,-0.0081 0.0277,-0.01361 0.04737,-0.01897 0.01741,-0.0047 0.03103,-0.0073 0.05111,-0.0094 0.01124,-0.0012 0.03708,-0.0013 0.490645,-0.0013 0.457381,0 0.479292,5.9e-5 0.490343,0.0013 0.03582,0.004 0.06565,0.01303 0.09263,0.02799 0.02052,0.01138 0.03488,0.02394 0.04289,0.03755 0.0068,0.01161 0.0065,-5.9e-5 0.0065,0.228351 v 0.211722 l -0.04916,0.02575 c -0.05579,0.02922 -0.063,0.03285 -0.105717,0.05321 -0.134834,0.06426 -0.406532,0.185915 -0.672211,0.300983 -0.04085,0.01769 -0.131114,0.05561 -0.133298,0.056 -8.96e-4,2.22e-4 -0.06918,-0.03321 -0.151717,-0.07414 z"
       id="path9-75"
       transform="matrix(2.6471435,0,0,4.7595433,-67.49156,-53.878189)" />
    <path
       style="display:inline;fill:#ea4335;fill-opacity:1;stroke:none;stroke-width:0.000405755;stroke-dasharray:none;stroke-opacity:1"
       d="m 31.638124,42.531668 c 3e-6,-2.21e-4 0.0049,-0.0057 0.0067,-0.0074 0.01191,-0.01165 0.02908,-0.02172 0.05018,-0.02942 0.02396,-0.0087 0.05215,-0.01424 0.0824,-0.01604 0.01001,-5.27e-4 -0.0017,-5.27e-4 0.159183,-5.27e-4 0.145322,-3e-5 0.148632,-3e-5 0.148632,2.21e-4 0,2.21e-4 -0.0028,2.21e-4 -0.123235,3.32e-4 -0.155338,8.7e-5 -0.18232,2.22e-4 -0.193258,10e-4 -0.0014,8.7e-5 -0.0048,4.43e-4 -0.0075,7.9e-4 -0.0185,0.0022 -0.03126,0.0046 -0.04823,0.0094 -0.0174,0.0048 -0.02919,0.0094 -0.04152,0.01617 -0.0048,0.0026 -0.0076,0.0043 -0.01165,0.0071 -0.0087,0.006 -0.01779,0.01356 -0.01779,0.01472 0,2.21e-4 5.1e-5,2.21e-4 4.17e-4,1.11e-4 0.0012,-3.32e-4 0.0075,-0.0036 0.01803,-0.0093 0.004,-0.0022 0.0072,-0.0039 0.0072,-0.0038 0,2.9e-5 -0.0059,0.0035 -0.01309,0.0076 -0.01611,0.0092 -0.01652,0.0095 -0.01652,0.0093 z"
       id="path10-9"
       transform="matrix(2.6471435,0,0,4.7595433,-67.49156,-53.878189)" />
    <path
       style="display:inline;fill:#ea4335;fill-opacity:1;stroke:none;stroke-width:0.000405755;stroke-dasharray:none;stroke-opacity:1"
       d="m 31.694154,42.501308 c 5.3e-5,-5.9e-5 0.0017,-7.9e-4 0.0037,-0.0016 0.01205,-0.0051 0.03137,-0.01122 0.04011,-0.01282 0.0016,-3.32e-4 0.0021,-2.21e-4 6.32e-4,5.9e-5 -0.01136,0.0024 -0.02925,0.0081 -0.04266,0.0138 -0.0015,6.85e-4 -0.0019,7.9e-4 -0.0017,5.27e-4 z"
       id="path13-9"
       transform="matrix(2.6471435,0,0,4.7595433,-67.49156,-53.878189)" />
    <path
       style="display:inline;fill:#ea4335;fill-opacity:1;stroke:none;stroke-width:0.000405755;stroke-dasharray:none;stroke-opacity:1"
       d="m 31.642346,42.527589 c 0.0012,-0.0022 0.01297,-0.01149 0.02135,-0.01691 0.0058,-0.0037 0.01365,-0.0079 0.02102,-0.01106 0.0093,-0.004 0.0199,-0.0076 0.03259,-0.01091 0.01581,-0.0042 0.02873,-0.0065 0.04605,-0.0084 0.0065,-6.84e-4 0.0095,-8.95e-4 0.02355,-10e-4 0.009,-1.11e-4 0.05006,-3.33e-4 0.07485,-4.43e-4 0.0093,-1.9e-5 -2.5e-5,-1.7e-5 -0.02067,4e-6 -0.04295,2.9e-5 -0.05533,1.11e-4 -0.0693,5.27e-4 -0.0015,5.9e-5 -0.0016,2.9e-5 -7.38e-4,-5.8e-5 0.0017,-2.22e-4 0.0099,-6.85e-4 0.01304,-7.9e-4 0.0038,-1.11e-4 0.300928,-2.22e-4 0.298,-8.8e-5 -0.0011,5.9e-5 -0.0457,1.11e-4 -0.102105,2.21e-4 l -0.100151,8.8e-5 0.10267,2e-5 0.10267,1.9e-5 v 6.85e-4 6.84e-4 l -0.006,5.9e-5 c -0.0033,3e-5 -0.01726,1.11e-4 -0.031,2.21e-4 -0.145957,6.85e-4 -0.256285,0.0022 -0.288422,0.004 -0.01649,8.95e-4 -0.02441,0.0023 -0.03928,0.007 -0.02127,0.0068 -0.03069,0.01094 -0.05702,0.02534 -0.01149,0.0063 -0.01977,0.01063 -0.02088,0.01097 -3.18e-4,8.7e-5 -3.79e-4,8.7e-5 -2.19e-4,-1.11e-4 z"
       id="path14-0"
       transform="matrix(2.6471435,0,0,4.7595433,-67.49156,-53.878189)" />
    <path
       style="display:inline;fill:#fbbc04;fill-opacity:1;stroke:#fbbc04;stroke-width:0.00445174;stroke-dasharray:none;stroke-opacity:1"
       d="m 30.234685,43.861352 c -0.0058,-0.0085 -0.0068,-0.0106 -0.0077,-0.01634 -0.007,-0.04575 -0.0074,-0.286757 -0.0013,-0.67854 0.0019,-0.123659 0.0038,-0.230805 0.0041,-0.2381 5.79e-4,-0.0136 0.0018,-0.01843 0.0065,-0.02533 0.0094,-0.01395 0.03178,-0.02458 0.06128,-0.02908 0.02414,-0.0037 -0.01795,-0.0034 0.541369,-0.0036 0.375241,-2.21e-4 0.516505,-3e-5 0.524368,4.43e-4 0.03134,0.0021 0.05586,0.0088 0.06957,0.01893 0.0099,0.0073 0.01537,0.0147 0.01951,0.02635 0.0024,0.0068 0.0024,0.0076 0.0028,0.19357 l 3.78e-4,0.186774 -0.199828,0.09535 c -0.687477,0.328049 -0.844359,0.402279 -0.978671,0.463072 -0.0176,0.008 -0.03282,0.01488 -0.03385,0.01536 -0.0016,7.9e-4 -0.0026,-2.22e-4 -0.0085,-0.0089 z"
       id="path15-0"
       transform="matrix(2.6471435,0,0,4.7595433,-67.49156,-53.878189)" />
    <path
       style="display:inline;fill:#fbbc04;fill-opacity:1;stroke:#fbbc04;stroke-width:9.85409e-06;stroke-dasharray:none;stroke-opacity:1"
       d="m 30.312104,42.871763 c 0.0041,-4.42e-4 0.01079,-0.001 0.02118,-0.0015 0.0031,-2.21e-4 0.391348,-2.21e-4 0.391348,-1.11e-4 0,5.9e-5 -0.05171,1.11e-4 -0.118813,2.22e-4 -0.2251,1.1e-4 -0.271612,3.31e-4 -0.290566,0.0014 -0.0017,8.8e-5 -0.0036,2.22e-4 -0.0041,2.22e-4 -5.8e-4,2.9e-5 -1.06e-4,-5.9e-5 9.48e-4,-2.22e-4 z"
       id="path16-9"
       transform="matrix(2.6471435,0,0,4.7595433,-67.49156,-53.878189)" />
    <path
       style="display:inline;fill:#fbbc04;fill-opacity:1;stroke:#fbbc04;stroke-width:9.85409e-06;stroke-dasharray:none;stroke-opacity:1"
       d="m 30.227199,43.058886 c -5.3e-5,-0.0076 0.002,-0.137276 0.0022,-0.139024 0.0016,-0.01294 0.0094,-0.02382 0.02274,-0.03175 0.01194,-0.0071 0.02763,-0.01194 0.04852,-0.01498 0.0017,-2.21e-4 0.0032,-4.43e-4 0.0034,-4.43e-4 3.78e-4,1.3e-5 -0.0011,2.22e-4 -0.0063,0.0011 -0.008,0.0013 -0.01237,0.0022 -0.01838,0.0038 -0.0052,0.0014 -0.0069,0.0019 -0.01155,0.0037 -0.01122,0.0042 -0.02016,0.0094 -0.02654,0.01554 -0.0041,0.0039 -0.0075,0.009 -0.0091,0.01367 -0.0014,0.0037 -0.0021,0.0088 -0.0025,0.01693 -2.2e-4,0.0043 -6.33e-4,0.0255 -0.0021,0.1078 -2.58e-4,0.01485 -4.77e-4,0.02547 -5.17e-4,0.02362 z"
       id="path17-9"
       transform="matrix(2.6471435,0,0,4.7595433,-67.49156,-53.878189)" />
    <path
       style="display:inline;fill:#fbbc04;fill-opacity:1;stroke:#fbbc04;stroke-width:9.85409e-06;stroke-dasharray:none;stroke-opacity:1"
       d="m 30.224744,43.232225 c 4e-6,-2.21e-4 5e-5,-2.21e-4 1.04e-4,-1.1e-4 5.3e-5,1.1e-4 4.9e-5,2.21e-4 -7e-6,3.31e-4 -5.3e-5,8.8e-5 -1.06e-4,-1.3e-5 -1.06e-4,-2.21e-4 z"
       id="path18-3"
       transform="matrix(2.6471435,0,0,4.7595433,-67.49156,-53.878189)" />
    <path
       style="display:inline;fill:#fbbc04;fill-opacity:1;stroke:#fbbc04;stroke-width:9.85409e-06;stroke-dasharray:none;stroke-opacity:1"
       d="m 30.224592,43.227593 c 0,-0.0027 2.7e-5,-0.0037 5.3e-5,-0.0024 3.2e-5,0.0013 3.2e-5,0.0035 0,0.0048 -3.4e-5,0.0013 -5.3e-5,2.21e-4 -5.3e-5,-0.0024 z"
       id="path19-955"
       transform="matrix(2.6471435,0,0,4.7595433,-67.49156,-53.878189)" />
    <path
       style="display:inline;fill:#fbbc04;fill-opacity:1;stroke:#fbbc04;stroke-width:9.85409e-06;stroke-dasharray:none;stroke-opacity:1"
       d="m 30.240937,43.871225 c -1.06e-4,-2.21e-4 -0.0031,-0.0045 -0.0066,-0.0096 -0.007,-0.0102 -0.0068,-0.0097 -0.0074,-0.01344 -0.0034,-0.0185 -0.0057,-0.09042 -0.0062,-0.191507 -1.05e-4,-0.02375 -1.05e-4,-0.02638 1.58e-4,-0.02638 4.18e-4,0 5.27e-4,0.0066 6.85e-4,0.04335 3.78e-4,0.09946 0.0028,0.165378 0.0064,0.176196 8.42e-4,0.0025 0.0023,0.0051 0.0056,0.0099 0.0033,0.0048 0.0051,0.0074 0.0064,0.0089 0.0013,0.0015 0.0019,0.0019 0.0028,0.0017 2.58e-4,-5.7e-5 0.0054,-0.0024 0.01145,-0.0051 0.006,-0.0027 0.01702,-0.0077 0.02442,-0.01109 0.03644,-0.01653 0.05581,-0.0254 0.09141,-0.04191 0.07234,-0.03353 0.164885,-0.07717 0.333973,-0.1575 0.01097,-0.0052 0.02011,-0.0095 0.02031,-0.0097 3.19e-4,-1.1e-4 3.78e-4,-1.1e-4 3.78e-4,-7e-6 0,8.8e-5 -0.0046,0.0024 -0.01033,0.0051 -0.05082,0.02417 -0.126424,0.06005 -0.159326,0.07561 -0.08142,0.03851 -0.189262,0.08892 -0.236598,0.110602 -0.0099,0.0045 -0.07665,0.03487 -0.07696,0.03498 -1.58e-4,5.8e-5 -3.18e-4,-2.2e-5 -4.77e-4,-2.22e-4 z"
       id="path20-9"
       transform="matrix(2.6471435,0,0,4.7595433,-67.49156,-53.878189)" />
    <path
       style="display:inline;fill:#ea4335;fill-opacity:1;stroke:#ea4335;stroke-width:0.000630663;stroke-dasharray:none;stroke-opacity:1"
       d="m 31.782711,43.340362 -0.143457,-0.07089 0.0039,-0.362498 c 0.0025,-0.230194 0.0089,-0.368055 0.01749,-0.377727 0.0075,-0.0084 0.03238,-0.02155 0.05534,-0.02928 0.03922,-0.0132 0.07203,-0.01405 0.542447,-0.01405 0.456196,0 0.503854,0.0012 0.536147,0.01291 0.08041,0.0293 0.08146,0.03252 0.08633,0.265473 l 0.0045,0.213172 -0.109744,0.0553 c -0.107677,0.05425 -0.786997,0.35934 -0.828364,0.372024 -0.01617,0.005 -0.05437,-0.01 -0.164519,-0.06443 z"
       id="path21-7"
       transform="matrix(2.6471435,0,0,4.7595433,-67.49156,-53.878189)" />
    <path
       style="display:inline;fill:#ea4335;fill-opacity:1;stroke:#ea4335;stroke-width:0.000630663;stroke-dasharray:none;stroke-opacity:1"
       d="m 31.905158,43.390926 c -0.01925,-0.007 -0.08527,-0.03729 -0.146702,-0.06726 l -0.111698,-0.05449 -4.18e-4,-0.208623 c -2.19e-4,-0.114744 0.0035,-0.280931 0.0083,-0.369306 0.0085,-0.15661 0.0095,-0.16109 0.03988,-0.176743 0.01713,-0.0088 0.05166,-0.0182 0.0767,-0.02081 0.05982,-0.0062 0.900728,-0.0061 0.96408,1.1e-4 0.02696,0.0027 0.06498,0.01312 0.08448,0.02324 0.04427,0.02296 0.04699,0.03653 0.05542,0.276294 l 0.0064,0.183002 -0.147377,0.07087 c -0.136943,0.06585 -0.68397,0.312648 -0.760288,0.343014 -0.03228,0.01284 -0.0354,0.01287 -0.06881,6.85e-4 z"
       id="path22-3"
       transform="matrix(2.6471435,0,0,4.7595433,-67.49156,-53.878189)" />
    <path
       style="display:inline;fill:#ea4335;fill-opacity:1;stroke:#ea4335;stroke-width:1.97081e-05;stroke-dasharray:none;stroke-opacity:1"
       d="m 31.642462,43.009419 c 0,-6.85e-4 5.2e-5,-10e-4 1.58e-4,-6.85e-4 1.05e-4,3.33e-4 1.05e-4,8.96e-4 0,0.0013 -1.06e-4,3.33e-4 -1.58e-4,5.9e-5 -1.58e-4,-6.84e-4 z"
       id="path23-21"
       transform="matrix(2.6471435,0,0,4.7595433,-67.49156,-53.878189)" />
    <path
       style="display:inline;fill:#34a853;fill-opacity:1;stroke:#34a853;stroke-width:0.00593566;stroke-dasharray:none;stroke-opacity:1"
       d="m 28.925372,44.33974 c -0.0086,-0.0012 -0.02122,-0.0047 -0.02794,-0.0077 l -0.01222,-0.0055 -9.48e-4,-0.374038 c -6.85e-4,-0.273162 4.9e-5,-0.376983 0.0028,-0.384957 0.01001,-0.0293 0.03605,-0.04183 0.09689,-0.04666 0.01444,-0.0012 0.199164,-0.0018 0.495497,-0.0018 0.457288,-2.9e-5 0.473268,8.8e-5 0.497477,0.0035 0.04095,0.0058 0.06183,0.01369 0.07554,0.02847 0.0158,0.01702 0.01558,0.01408 0.01562,0.211734 l 3.9e-5,0.186114 -0.04484,0.02044 c -0.15803,0.07203 -0.324193,0.143413 -0.424106,0.182206 -0.134104,0.05207 -0.373941,0.12427 -0.568708,0.171208 -0.07245,0.01746 -0.08627,0.0197 -0.105074,0.01705 z"
       id="path24-1"
       transform="matrix(2.6471435,0,0,4.7595433,-67.49156,-53.878189)" />
  </g>
</svg>
